<svg width="56" height="56" fill="none" xmlns="http://www.w3.org/2000/svg"><g filter="url(#a)" fill="#000"><path d="M24 17h-4v6h4v-6ZM36 17h-4v6h4v-6ZM30 17h-4v6h4v-6ZM24 25h-4v6h4v-6ZM36 25h-4v6h4v-6ZM30 25h-4v6h4v-6ZM8 2h40v-4H8v4Zm42 2v40h4V4h-4Zm-2 42H8v4h40v-4ZM6 44V4H2v40h4Zm2 2a2 2 0 0 1-2-2H2a6 6 0 0 0 6 6v-4Zm42-2a2 2 0 0 1-2 2v4a6 6 0 0 0 6-6h-4ZM48 2a2 2 0 0 1 2 2h4a6 6 0 0 0-6-6v4ZM8-2a6 6 0 0 0-6 6h4c0-1.1.9-2 2-2v-4Z"/></g><defs><filter id="a" x="0" y="0" width="56" height="56" filterUnits="userSpaceOnUse" color-interpolation-filters="sRGB"><feFlood flood-opacity="0" result="BackgroundImageFix"/><feColorMatrix in="SourceAlpha" values="0 0 0 0 0 0 0 0 0 0 0 0 0 0 0 0 0 0 127 0" result="hardAlpha"/><feOffset dy="4"/><feGaussianBlur stdDeviation="2"/><feComposite in2="hardAlpha" operator="out"/><feColorMatrix values="0 0 0 0 0 0 0 0 0 0 0 0 0 0 0 0 0 0 0.25 0"/><feBlend in2="BackgroundImageFix" result="effect1_dropShadow_33548_2035"/><feBlend in="SourceGraphic" in2="effect1_dropShadow_33548_2035" result="shape"/></filter></defs></svg>